<svg width="263" height="50" viewBox="0 0 263 50" fill="none" xmlns="http://www.w3.org/2000/svg">
<g clip-path="url(#clip0_498_877)">
<path d="M37.2927 21.429L29.8342 14.2861H22.3756H14.917V21.429H22.3756V35.7147H29.8342V21.429H37.2927Z" fill="#00A99D"/>
<path d="M44.7519 7.14258V42.8569H7.45898L14.9176 49.9997H44.7519H52.2105L52.2105 42.8569V14.2854L44.7519 7.14258Z" fill="#00766E"/>
<path d="M44.7515 7.14286L37.2929 0H7.45859H0V7.14286V35.7143L7.45859 42.8571V7.14286H44.7515Z" fill="#39B54A"/>
<path d="M69.3779 7.75488H86.5423V10.3262H79.5742V29.1822H76.3779V10.3262H69.3779V7.75488Z" fill="#171717"/>
<path d="M96.0032 29.1816L95.7475 26.947C95.2571 27.7228 94.6233 28.3197 93.8457 28.7378C93.0676 29.1562 92.0607 29.3652 90.8251 29.3652C89.6745 29.3652 88.6941 29.1864 87.8845 28.8296C87.0744 28.4728 86.4511 27.9725 86.0146 27.3297C85.5776 26.6869 85.3594 25.9369 85.3594 25.0798C85.3594 23.7941 85.8598 22.728 86.8617 21.881C87.863 21.0345 89.3119 20.5088 91.2087 20.3046L95.7475 19.8148V18.621C95.7475 17.9681 95.4703 17.4119 94.9165 16.9527C94.3621 16.4936 93.563 16.264 92.5192 16.264C91.5389 16.264 90.7078 16.4836 90.0261 16.9221C89.3439 17.3612 88.8858 18.0088 88.6516 18.8659L85.9667 17.9476C86.3712 16.6007 87.1654 15.5499 88.348 14.7947C89.5307 14.04 90.9635 13.6621 92.6471 13.6621C94.6498 13.6621 96.1735 14.1418 97.2178 15.1008C98.2617 16.0603 98.784 17.3253 98.784 18.8965V29.1816L96.0032 29.1816ZM95.7475 22.1719L91.3685 22.6922C90.4306 22.8147 89.7274 23.0648 89.2589 23.4421C88.79 23.82 88.5557 24.3146 88.5557 24.9268C88.5557 25.4983 88.7844 25.9728 89.2429 26.3501C89.7009 26.728 90.3457 26.9164 91.1767 26.9164C92.1996 26.9164 93.0516 26.7328 93.7338 26.3654C94.4155 25.9981 94.9214 25.483 95.2521 24.8196C95.5822 24.1567 95.7475 23.3862 95.7475 22.5085L95.7475 22.1719Z" fill="#171717"/>
<path d="M105.244 16.4788C105.733 15.6829 106.463 15.0148 107.433 14.4738C108.402 13.9333 109.58 13.6626 110.965 13.6626C112.414 13.6626 113.682 13.9893 114.769 14.6421C115.855 15.2955 116.702 16.2138 117.31 17.3971C117.917 18.5809 118.221 19.9583 118.221 21.5295C118.221 23.1007 117.912 24.4786 117.294 25.6619C116.675 26.8456 115.823 27.764 114.737 28.4168C113.65 29.0701 112.392 29.3963 110.965 29.3963C109.665 29.3963 108.562 29.1514 107.657 28.6617C106.751 28.1719 106.043 27.5803 105.531 26.8863L105.307 29.1821H102.559V7.14258H105.563V16.5706L105.244 16.4788ZM114.96 21.5295C114.96 19.9583 114.529 18.6932 113.666 17.7338C112.803 16.7748 111.679 16.2951 110.294 16.2951C109.399 16.2951 108.6 16.5046 107.897 16.9226C107.193 17.3411 106.628 17.938 106.202 18.7133C105.776 19.4891 105.563 20.4275 105.563 21.5295C105.563 22.6315 105.776 23.5756 106.202 24.361C106.628 25.1468 107.193 25.7437 107.897 26.1516C108.6 26.5601 109.399 26.7639 110.294 26.7639C111.679 26.7639 112.803 26.2846 113.666 25.3252C114.529 24.3662 114.96 23.1011 114.96 21.5295Z" fill="#171717"/>
<path d="M134.599 29.1822H131.85L131.626 27.3762C131.115 28.0295 130.47 28.5293 129.692 28.8761C128.914 29.2228 128.046 29.3964 127.087 29.3964C125.851 29.3964 124.775 29.1468 123.859 28.6465C122.943 28.1467 122.234 27.412 121.734 26.4425C121.233 25.4735 120.982 24.2644 120.982 22.8152V13.877H124.019V22.4479C124.019 23.856 124.323 24.9273 124.93 25.662C125.537 26.3966 126.459 26.764 127.695 26.764C128.909 26.764 129.863 26.3866 130.555 25.6313C131.248 24.8766 131.594 23.7541 131.594 22.2642V13.877H134.599L134.599 29.1822Z" fill="#171717"/>
<path d="M138.488 7.14258H141.493V29.1821H138.488V7.14258Z" fill="#171717"/>
<path d="M155.186 29.1816L154.93 26.947C154.44 27.7228 153.806 28.3197 153.028 28.7378C152.25 29.1562 151.243 29.3652 150.008 29.3652C148.857 29.3652 147.877 29.1864 147.067 28.8296C146.257 28.4728 145.634 27.9725 145.197 27.3297C144.76 26.6869 144.542 25.9369 144.542 25.0798C144.542 23.7941 145.042 22.728 146.044 21.881C147.046 21.0345 148.495 20.5088 150.391 20.3046L154.93 19.8148V18.621C154.93 17.9681 154.653 17.4119 154.099 16.9527C153.545 16.4936 152.746 16.264 151.702 16.264C150.721 16.264 149.89 16.4836 149.209 16.9221C148.526 17.3612 148.068 18.0088 147.834 18.8659L145.149 17.9476C145.554 16.6007 146.348 15.5499 147.531 14.7947C148.713 14.04 150.146 13.6621 151.83 13.6621C153.832 13.6621 155.356 14.1418 156.4 15.1008C157.444 16.0603 157.967 17.3253 157.967 18.8965V29.1816L155.186 29.1816ZM154.93 22.1719L150.551 22.6922C149.613 22.8147 148.91 23.0648 148.442 23.4421C147.973 23.82 147.738 24.3146 147.738 24.9268C147.738 25.4983 147.967 25.9728 148.426 26.3501C148.884 26.728 149.528 26.9164 150.359 26.9164C151.382 26.9164 152.234 26.7328 152.916 26.3654C153.598 25.9981 154.104 25.483 154.435 24.8196C154.765 24.1567 154.93 23.3862 154.93 22.5085L154.93 22.1719Z" fill="#171717"/>
<path d="M161.741 13.8765H164.49L164.682 15.9274C165.129 15.397 165.646 14.9531 166.232 14.5959C166.818 14.239 167.457 13.9889 168.15 13.8459C168.842 13.7034 169.561 13.7134 170.307 13.8765V16.6009C169.604 16.4378 168.922 16.4171 168.262 16.5396C167.601 16.6621 167.01 16.9222 166.488 17.3202C165.965 17.7181 165.545 18.2438 165.225 18.8966C164.906 19.55 164.746 20.3353 164.746 21.2536V29.1817H161.741V13.8765Z" fill="#171717"/>
<path d="M197.476 10.3262H185.714V17.0299H194.536V19.6012H185.714V26.6109H197.476V29.1822H182.518V7.75488H197.476V10.3262Z" fill="#171717"/>
<path d="M212.172 16.4788L211.821 16.5706V7.14258H214.857V29.1821H212.109L211.885 26.8863C211.352 27.5803 210.633 28.1719 209.727 28.6617C208.821 29.1514 207.719 29.3963 206.419 29.3963C204.97 29.3963 203.707 29.0701 202.631 28.4168C201.555 27.764 200.714 26.8456 200.106 25.6619C199.499 24.4786 199.195 23.1011 199.195 21.5295C199.195 19.9579 199.499 18.5809 200.106 17.3971C200.714 16.2138 201.555 15.2955 202.631 14.6421C203.707 13.9893 204.97 13.6626 206.419 13.6626C207.804 13.6626 208.981 13.9333 209.951 14.4738C210.92 15.0147 211.661 15.6829 212.172 16.4788ZM202.424 21.5295C202.424 23.1011 202.85 24.3662 203.702 25.3252C204.554 26.2846 205.694 26.7639 207.122 26.7639C207.996 26.7639 208.784 26.5601 209.487 26.1516C210.191 25.7437 210.755 25.1468 211.182 24.361C211.608 23.5756 211.821 22.6314 211.821 21.5295C211.821 20.4276 211.608 19.4891 211.182 18.7133C210.755 17.938 210.191 17.3411 209.487 16.9226C208.784 16.5046 207.996 16.2951 207.122 16.2951C205.716 16.2951 204.581 16.7748 203.718 17.7338C202.855 18.6932 202.424 19.9583 202.424 21.5295Z" fill="#171717"/>
<path d="M220.537 11.1831C219.962 11.1831 219.482 10.9994 219.099 10.6321C218.715 10.2648 218.523 9.81615 218.523 9.28525C218.523 8.73425 218.715 8.27033 219.099 7.89251C219.482 7.51513 219.962 7.32617 220.537 7.32617C221.091 7.32617 221.565 7.51515 221.96 7.89251C222.354 8.27033 222.551 8.73425 222.551 9.28525C222.551 9.81615 222.354 10.2648 221.96 10.6321C221.565 10.9994 221.091 11.1831 220.537 11.1831ZM219.003 13.8768H222.039V29.182H219.003V13.8768Z" fill="#171717"/>
<path d="M226.971 13.8773V9.5918H230.008V13.8773H234.003V16.4485H230.008V23.9787C230.008 24.9175 230.205 25.581 230.599 25.9684C230.993 26.3563 231.494 26.5758 232.101 26.6265C232.709 26.6776 233.343 26.6624 234.003 26.5806V29.06C233.129 29.2437 232.272 29.2996 231.43 29.2284C230.588 29.1571 229.832 28.9275 229.161 28.5396C228.49 28.1523 227.957 27.5859 227.563 26.8407C227.168 26.0961 226.971 25.1419 226.971 23.9787V16.4485H224.67V13.8773L226.971 13.8773Z" fill="#171717"/>
<path d="M243.234 29.3968C241.72 29.3968 240.362 29.0754 239.158 28.4326C237.954 27.7898 237.011 26.882 236.329 25.7083C235.647 24.535 235.307 23.1523 235.307 21.5606C235.307 19.9487 235.658 18.5507 236.361 17.367C237.065 16.1837 238.023 15.2702 239.238 14.6273C240.453 13.9845 241.816 13.6631 243.329 13.6631C244.843 13.6631 246.211 13.9845 247.437 14.6273C248.662 15.2702 249.626 16.1784 250.329 17.3516C251.033 18.5254 251.384 19.9076 251.384 21.4994C251.384 23.1117 251.027 24.5097 250.313 25.693C249.599 26.8767 248.624 27.7898 247.389 28.4326C246.153 29.0755 244.768 29.3968 243.234 29.3968ZM243.202 26.7644C244.054 26.7644 244.853 26.5759 245.599 26.198C246.344 25.8206 246.957 25.2443 247.437 24.4686C247.916 23.6933 248.156 22.7037 248.156 21.4994C248.156 20.3161 247.927 19.3413 247.469 18.5761C247.01 17.8108 246.408 17.2397 245.663 16.8619C244.917 16.4845 244.118 16.2956 243.265 16.2956C242.434 16.2956 241.662 16.4845 240.948 16.8619C240.234 17.2397 239.654 17.8161 239.206 18.5914C238.759 19.3672 238.535 20.3567 238.535 21.5606C238.535 22.7443 238.753 23.7186 239.19 24.4838C239.627 25.2491 240.197 25.8207 240.9 26.198C241.603 26.5759 242.371 26.7644 243.202 26.7644Z" fill="#171717"/>
<path d="M254.434 13.8765H257.182L257.374 15.9274C257.822 15.397 258.338 14.9531 258.925 14.5959C259.51 14.239 260.15 13.9889 260.842 13.8459C261.534 13.7034 262.254 13.7134 263 13.8765V16.6009C262.297 16.4378 261.614 16.4171 260.954 16.5396C260.293 16.6621 259.702 16.9222 259.18 17.3202C258.658 17.7181 258.237 18.2438 257.918 18.8966C257.598 19.55 257.438 20.3353 257.438 21.2536V29.1817H254.434V13.8765Z" fill="#171717"/>
<path d="M76.3799 49.882V39.2029H80.9199C81.7058 39.2029 82.3537 39.3302 82.8634 39.5842C83.3733 39.8386 83.7528 40.1716 84.0024 40.5835C84.2518 40.9954 84.3768 41.4507 84.3768 41.9489C84.3768 42.4371 84.2837 42.8467 84.098 43.177C83.9121 43.5077 83.6625 43.7696 83.3493 43.9627C83.0359 44.156 82.6935 44.2883 82.3217 44.3594V44.4662C82.7679 44.5272 83.1661 44.6621 83.5165 44.8704C83.8671 45.079 84.1431 45.3612 84.3449 45.7171C84.5466 46.0732 84.6476 46.5054 84.6476 47.0139C84.6476 47.5428 84.5095 48.026 84.2334 48.4632C83.9571 48.9006 83.551 49.2464 83.0147 49.5006C82.4784 49.7549 81.8225 49.882 81.0473 49.882H76.3799ZM83.1183 42.1015C83.1183 41.5423 82.9244 41.0972 82.5368 40.7666C82.149 40.4362 81.5731 40.2708 80.8084 40.2708H77.6543V43.917H80.8562C81.5782 43.917 82.1358 43.7544 82.5289 43.4287C82.9217 43.1034 83.1183 42.6609 83.1183 42.1015ZM77.6543 48.8141H80.9519C81.7165 48.8141 82.3138 48.6488 82.7439 48.3183C83.1741 47.9879 83.3891 47.5123 83.3891 46.8919C83.3891 46.2714 83.1633 45.7987 82.7121 45.4731C82.2605 45.1477 81.658 44.9848 80.904 44.9848H77.6543L77.6543 48.8141Z" fill="#171717"/>
<path d="M89.7718 49.9897C89.0283 49.9897 88.3672 49.8169 87.7885 49.471C87.2095 49.1254 86.7555 48.6524 86.4265 48.0522C86.0972 47.4522 85.9326 46.7657 85.9326 45.9926C85.9326 45.2504 86.0972 44.5891 86.4265 44.0094C86.7556 43.4297 87.207 42.9746 87.7806 42.644C88.354 42.3136 89.0072 42.1482 89.7399 42.1482C90.4621 42.1482 91.1073 42.3007 91.6755 42.6058C92.2435 42.911 92.6871 43.3331 93.0057 43.8721C93.3243 44.4113 93.4729 45.0265 93.4517 45.718C93.4517 45.8301 93.4462 45.9469 93.4358 46.0689C93.4251 46.191 93.4144 46.3233 93.4039 46.4656H87.2389C87.2601 46.9438 87.3823 47.3657 87.6054 47.7318C87.8284 48.0979 88.123 48.3855 88.4895 48.5938C88.8558 48.8023 89.2725 48.9065 89.7399 48.9065C90.3557 48.9065 90.879 48.7947 91.3091 48.5709C91.7392 48.3473 92.0498 48.0269 92.241 47.6098L93.2765 48.0064C92.9579 48.6472 92.4958 49.138 91.8906 49.4786C91.2853 49.8195 90.5787 49.9897 89.7718 49.9897ZM92.1454 45.474C92.1559 45.0368 92.0579 44.6502 91.8508 44.3145C91.6436 43.9789 91.3541 43.7145 90.9825 43.5212C90.6107 43.3281 90.1805 43.2314 89.6922 43.2314C89.2673 43.2314 88.8798 43.3281 88.5292 43.5212C88.1788 43.7145 87.8893 43.9815 87.6611 44.3221C87.4326 44.663 87.2972 45.0468 87.2548 45.474H92.1454Z" fill="#171717"/>
<path d="M95.3969 42.2545V40.1187H96.5916V42.2545H98.7104V43.3224H96.5916V47.4262C96.5916 47.8941 96.6952 48.2348 96.9023 48.4484C97.1094 48.6619 97.3747 48.7892 97.6987 48.8297C98.0227 48.8705 98.3598 48.8705 98.7104 48.8297V49.8214C98.2962 49.9129 97.89 49.9382 97.4918 49.8977C97.0934 49.8571 96.7376 49.7427 96.4244 49.5544C96.111 49.3663 95.8614 49.0993 95.6757 48.7534C95.4898 48.4078 95.3969 47.9654 95.3969 47.4262V43.3223H94.2021V42.2545L95.3969 42.2545Z" fill="#171717"/>
<path d="M100.901 42.2545V40.1187H102.096V42.2545H104.214V43.3224H102.096V47.4262C102.096 47.8941 102.199 48.2348 102.406 48.4484C102.613 48.6619 102.879 48.7892 103.203 48.8297C103.527 48.8705 103.864 48.8705 104.214 48.8297V49.8214C103.8 49.9129 103.394 49.9382 102.996 49.8977C102.597 49.8571 102.241 49.7427 101.928 49.5544C101.615 49.3663 101.365 49.0993 101.18 48.7534C100.994 48.4078 100.901 47.9654 100.901 47.4262V43.3223H99.7061V42.2545L100.901 42.2545Z" fill="#171717"/>
<path d="M108.732 49.9897C107.988 49.9897 107.327 49.8169 106.748 49.471C106.169 49.1254 105.716 48.6524 105.386 48.0522C105.057 47.4522 104.893 46.7657 104.893 45.9926C104.893 45.2504 105.057 44.5891 105.386 44.0094C105.716 43.4297 106.167 42.9746 106.741 42.644C107.314 42.3136 107.967 42.1482 108.7 42.1482C109.422 42.1482 110.067 42.3007 110.635 42.6058C111.204 42.911 111.647 43.3331 111.966 43.8721C112.284 44.4113 112.433 45.0265 112.412 45.718C112.412 45.8301 112.406 45.9469 112.396 46.0689C112.385 46.191 112.374 46.3233 112.364 46.4656H106.199C106.22 46.9438 106.342 47.3657 106.565 47.7318C106.788 48.0979 107.083 48.3855 107.449 48.5938C107.816 48.8023 108.233 48.9065 108.7 48.9065C109.316 48.9065 109.839 48.7947 110.269 48.5709C110.699 48.3473 111.01 48.0269 111.201 47.6098L112.236 48.0064C111.918 48.6472 111.456 49.138 110.851 49.4786C110.245 49.8195 109.539 49.9897 108.732 49.9897ZM111.105 45.474C111.116 45.0368 111.018 44.6502 110.811 44.3145C110.604 43.9789 110.314 43.7145 109.942 43.5212C109.571 43.3281 109.14 43.2314 108.652 43.2314C108.227 43.2314 107.84 43.3281 107.489 43.5212C107.139 43.7145 106.849 43.9815 106.621 44.3221C106.392 44.663 106.257 45.0468 106.215 45.474H111.105Z" fill="#171717"/>
<path d="M114.022 42.2546H115.122L115.185 43.3683C115.398 43.0937 115.655 42.8598 115.958 42.6665C116.261 42.4735 116.595 42.3385 116.962 42.2622C117.328 42.1859 117.718 42.1836 118.133 42.2546V43.3988C117.686 43.3175 117.285 43.3175 116.93 43.3988C116.574 43.4803 116.269 43.6328 116.014 43.8564C115.759 44.0803 115.562 44.3625 115.424 44.7032C115.286 45.044 115.217 45.4381 115.217 45.8855V49.8825H114.022L114.022 42.2546Z" fill="#171717"/>
<path d="M128.024 39.2029C129.256 39.2029 130.311 39.4191 131.187 39.8513C132.063 40.2836 132.737 40.9015 133.21 41.7049C133.682 42.5084 133.919 43.4645 133.919 44.573C133.919 45.6713 133.682 46.6172 133.21 47.4105C132.737 48.2038 132.063 48.8141 131.187 49.2413C130.311 49.6684 129.256 49.882 128.024 49.882H124.345V39.2029L128.024 39.2029ZM128.024 48.8141C129.543 48.8141 130.69 48.4429 131.465 47.7004C132.241 46.9581 132.628 45.9155 132.628 44.573C132.628 43.2204 132.241 42.1652 131.465 41.4074C130.69 40.6498 129.543 40.2708 128.024 40.2708H125.619V48.8141L128.024 48.8141Z" fill="#171717"/>
<path d="M140.446 49.8829L140.351 48.5099C140.128 48.9778 139.798 49.3413 139.363 49.6006C138.928 49.86 138.375 49.9897 137.706 49.9897C137.133 49.9897 136.644 49.9032 136.241 49.7303C135.837 49.5575 135.526 49.3108 135.309 48.9904C135.091 48.67 134.982 48.2913 134.982 47.8539C134.982 47.2131 135.232 46.6868 135.731 46.2749C136.23 45.863 136.952 45.6112 137.898 45.5197L140.351 45.2604V44.6502C140.351 44.2229 140.186 43.8797 139.857 43.6203C139.528 43.361 139.082 43.2313 138.519 43.2313C137.967 43.2313 137.507 43.3534 137.141 43.5975C136.775 43.8416 136.522 44.1924 136.384 44.6502L135.301 44.284C135.513 43.6127 135.904 43.089 136.472 42.7126C137.04 42.3365 137.733 42.1482 138.551 42.1482C139.496 42.1482 140.231 42.3796 140.757 42.8423C141.283 43.3052 141.546 43.9331 141.546 44.7264V49.8829L140.446 49.8829ZM140.351 46.2368L137.882 46.5114C137.35 46.5724 136.947 46.7123 136.671 46.9309C136.395 47.1497 136.257 47.4369 136.257 47.7929C136.257 48.149 136.392 48.4336 136.663 48.6472C136.934 48.8607 137.324 48.9675 137.834 48.9675C138.418 48.9675 138.896 48.8558 139.268 48.632C139.639 48.4084 139.913 48.1056 140.088 47.7242C140.263 47.3428 140.351 46.9285 140.351 46.4809V46.2368Z" fill="#171717"/>
<path d="M143.866 42.2545V40.1187H145.06V42.2545H147.179V43.3224H145.06V47.4262C145.06 47.8941 145.164 48.2348 145.371 48.4484C145.578 48.6619 145.843 48.7892 146.168 48.8297C146.491 48.8705 146.829 48.8705 147.179 48.8297V49.8214C146.765 49.9129 146.359 49.9382 145.961 49.8977C145.562 49.8571 145.206 49.7427 144.893 49.5544C144.58 49.3663 144.33 49.0993 144.144 48.7534C143.959 48.4078 143.866 47.9654 143.866 47.4262V43.3223H142.671V42.2545L143.866 42.2545Z" fill="#171717"/>
<path d="M153.652 49.8829L153.557 48.5099C153.334 48.9778 153.005 49.3413 152.569 49.6006C152.134 49.86 151.582 49.9897 150.912 49.9897C150.339 49.9897 149.85 49.9032 149.447 49.7303C149.043 49.5575 148.733 49.3108 148.515 48.9904C148.297 48.67 148.188 48.2913 148.188 47.8539C148.188 47.2131 148.438 46.6868 148.937 46.2749C149.436 45.863 150.158 45.6112 151.104 45.5197L153.557 45.2604V44.6502C153.557 44.2229 153.392 43.8797 153.063 43.6203C152.734 43.361 152.288 43.2313 151.725 43.2313C151.173 43.2313 150.713 43.3534 150.347 43.5975C149.981 43.8416 149.728 44.1924 149.59 44.6502L148.507 44.284C148.719 43.6127 149.11 43.089 149.678 42.7126C150.246 42.3365 150.939 42.1482 151.757 42.1482C152.702 42.1482 153.437 42.3796 153.963 42.8423C154.489 43.3052 154.752 43.9331 154.752 44.7264V49.8829L153.652 49.8829ZM153.557 46.2368L151.088 46.5114C150.556 46.5724 150.153 46.7123 149.877 46.9309C149.601 47.1497 149.463 47.4369 149.463 47.7929C149.463 48.149 149.598 48.4336 149.869 48.6472C150.14 48.8607 150.53 48.9675 151.04 48.9675C151.624 48.9675 152.102 48.8558 152.474 48.632C152.845 48.4084 153.119 48.1056 153.294 47.7242C153.469 47.3428 153.557 46.9285 153.557 46.4809L153.557 46.2368Z" fill="#171717"/>
<path d="M162.94 49.882H161.666V39.2029H163.068L167.21 48.2038L171.336 39.2029H172.721V49.882H171.447V41.6133L167.656 49.882H166.748L162.94 41.6133L162.94 49.882Z" fill="#171717"/>
<path d="M178.429 49.9897C177.675 49.9897 177 49.8321 176.406 49.5167C175.811 49.2016 175.344 48.7516 175.004 48.1666C174.664 47.5819 174.494 46.8878 174.494 46.0842C174.494 45.2706 174.667 44.5689 175.012 43.9789C175.357 43.3891 175.83 42.9365 176.43 42.6211C177.03 42.306 177.707 42.1482 178.461 42.1482C179.215 42.1482 179.892 42.306 180.492 42.6211C181.092 42.9365 181.564 43.3865 181.91 43.9713C182.255 44.5562 182.427 45.2504 182.427 46.0537C182.427 46.8675 182.252 47.5693 181.902 48.159C181.551 48.7489 181.073 49.2016 180.468 49.5167C179.863 49.8321 179.183 49.9897 178.429 49.9897ZM178.413 48.9065C178.88 48.9065 179.321 48.8073 179.735 48.6091C180.149 48.4108 180.486 48.1006 180.747 47.6784C181.007 47.2565 181.137 46.7199 181.137 46.0689C181.137 45.4079 181.01 44.8689 180.755 44.4518C180.5 44.0349 180.168 43.7272 179.759 43.5288C179.35 43.3305 178.912 43.2314 178.445 43.2314C177.977 43.2314 177.542 43.3305 177.139 43.5288C176.735 43.7272 176.408 44.0375 176.159 44.4594C175.909 44.8816 175.785 45.4182 175.785 46.0689C175.785 46.7302 175.907 47.2691 176.151 47.6861C176.395 48.1032 176.716 48.4107 177.115 48.609C177.513 48.8073 177.946 48.9065 178.413 48.9065Z" fill="#171717"/>
<path d="M190.27 43.7953L190.142 43.8106V38.8982H191.337V49.8824H190.238L190.158 48.4636C189.914 48.8908 189.55 49.2519 189.067 49.5468C188.584 49.8419 187.986 49.9892 187.275 49.9892C186.542 49.9892 185.902 49.829 185.355 49.5087C184.808 49.1883 184.384 48.7332 184.081 48.1432C183.778 47.5535 183.627 46.8617 183.627 46.0684C183.627 45.2751 183.778 44.5863 184.081 44.0013C184.384 43.4166 184.808 42.9615 185.355 42.6359C185.902 42.3105 186.542 42.1477 187.275 42.1477C188.029 42.1477 188.655 42.3055 189.155 42.6206C189.654 42.936 190.025 43.3277 190.27 43.7953ZM184.917 46.0685C184.917 46.9433 185.151 47.6374 185.618 48.1509C186.085 48.6646 186.723 48.9213 187.53 48.9213C188.029 48.9213 188.475 48.8096 188.868 48.5857C189.261 48.3621 189.571 48.0365 189.8 47.6093C190.028 47.1822 190.143 46.6687 190.143 46.0685C190.143 45.4685 190.028 44.9574 189.8 44.5352C189.571 44.1134 189.261 43.7877 188.868 43.5589C188.475 43.3301 188.029 43.2156 187.53 43.2156C186.733 43.2156 186.099 43.4726 185.626 43.986C185.154 44.4997 184.917 45.1939 184.917 46.0685Z" fill="#171717"/>
<path d="M196.799 49.9897C196.056 49.9897 195.395 49.8169 194.816 49.471C194.237 49.1254 193.783 48.6524 193.454 48.0522C193.125 47.4522 192.96 46.7657 192.96 45.9926C192.96 45.2504 193.125 44.5891 193.454 44.0094C193.783 43.4297 194.234 42.9746 194.808 42.644C195.381 42.3136 196.035 42.1482 196.767 42.1482C197.489 42.1482 198.135 42.3007 198.703 42.6058C199.271 42.911 199.714 43.3331 200.033 43.8721C200.352 44.4113 200.5 45.0265 200.479 45.718C200.479 45.8301 200.474 45.9469 200.463 46.0689C200.452 46.191 200.442 46.3233 200.431 46.4656H194.266C194.287 46.9438 194.41 47.3657 194.633 47.7318C194.856 48.0979 195.15 48.3855 195.517 48.5938C195.883 48.8023 196.3 48.9065 196.767 48.9065C197.383 48.9065 197.906 48.7947 198.336 48.5709C198.767 48.3473 199.077 48.0269 199.268 47.6098L200.304 48.0064C199.985 48.6472 199.523 49.138 198.918 49.4786C198.313 49.8195 197.606 49.9897 196.799 49.9897ZM199.173 45.474C199.183 45.0368 199.085 44.6502 198.878 44.3145C198.671 43.9789 198.381 43.7145 198.01 43.5212C197.638 43.3281 197.208 43.2314 196.72 43.2314C196.295 43.2314 195.907 43.3281 195.557 43.5212C195.206 43.7145 194.917 43.9815 194.688 44.3221C194.46 44.663 194.325 45.0468 194.282 45.474H199.173Z" fill="#171717"/>
<path d="M202.108 38.8982H203.303V49.8824H202.108V38.8982Z" fill="#171717"/>
<path d="M206.064 47.5487C206.128 47.8538 206.244 48.1056 206.414 48.3039C206.584 48.5022 206.805 48.6524 207.076 48.7539C207.346 48.8557 207.662 48.9065 208.023 48.9065C208.586 48.9065 209.013 48.8023 209.306 48.5937C209.598 48.3854 209.744 48.1235 209.744 47.8081C209.744 47.5437 209.656 47.3301 209.481 47.1673C209.306 47.0047 209.075 46.8699 208.788 46.7631C208.501 46.6563 208.183 46.5624 207.832 46.4808C207.556 46.4198 207.259 46.3461 206.94 46.2596C206.621 46.1733 206.319 46.0537 206.032 45.9011C205.745 45.7485 205.512 45.5502 205.331 45.3061C205.15 45.062 205.06 44.7417 205.06 44.345C205.06 43.9078 205.185 43.5238 205.435 43.1932C205.684 42.8628 206.029 42.6058 206.47 42.4228C206.911 42.2397 207.418 42.1482 207.992 42.1482C208.65 42.1482 209.237 42.2855 209.752 42.5601C210.267 42.8347 210.625 43.2619 210.827 43.8416L209.712 44.2077C209.638 43.9434 209.502 43.7401 209.306 43.5975C209.109 43.4551 208.892 43.3586 208.653 43.3077C208.414 43.2569 208.177 43.2314 207.944 43.2314C207.466 43.2314 207.081 43.3205 206.789 43.4983C206.497 43.6764 206.351 43.9434 206.351 44.2992C206.351 44.4926 206.398 44.6528 206.494 44.7798C206.59 44.9071 206.722 45.0112 206.892 45.0925C207.062 45.1741 207.264 45.2428 207.498 45.2985C207.731 45.3546 207.986 45.4182 208.262 45.4892C208.57 45.5605 208.884 45.6494 209.202 45.7562C209.521 45.863 209.818 46.0003 210.094 46.1681C210.37 46.3359 210.596 46.5495 210.771 46.8088C210.947 47.0682 211.034 47.3912 211.034 47.7776C211.034 48.2253 210.907 48.6143 210.652 48.9446C210.397 49.2753 210.044 49.532 209.593 49.7151C209.141 49.8982 208.618 49.9897 208.023 49.9897C207.206 49.9897 206.528 49.8142 205.992 49.4634C205.456 49.1125 205.098 48.5964 204.917 47.9149L206.064 47.5487Z" fill="#171717"/>
<path d="M217.565 39.2029H224.877V40.2708H218.84V43.9169H223.38V44.9848H218.84V49.882H217.565V39.2029Z" fill="#171717"/>
<path d="M230.472 49.8829L230.376 48.5099C230.153 48.9778 229.824 49.3413 229.389 49.6006C228.953 49.86 228.401 49.9897 227.732 49.9897C227.158 49.9897 226.67 49.9032 226.266 49.7303C225.863 49.5575 225.552 49.3108 225.334 48.9904C225.117 48.67 225.008 48.2913 225.008 47.8539C225.008 47.2131 225.257 46.6868 225.756 46.2749C226.256 45.863 226.978 45.6112 227.923 45.5197L230.376 45.2604V44.6502C230.376 44.2229 230.211 43.8797 229.882 43.6203C229.553 43.361 229.107 43.2313 228.544 43.2313C227.992 43.2313 227.533 43.3534 227.166 43.5975C226.8 43.8416 226.547 44.1924 226.41 44.6502L225.326 44.284C225.539 43.6127 225.929 43.089 226.497 42.7126C227.065 42.3365 227.758 42.1482 228.576 42.1482C229.521 42.1482 230.257 42.3796 230.782 42.8423C231.308 43.3052 231.571 43.9331 231.571 44.7264V49.8829L230.472 49.8829ZM230.376 46.2368L227.907 46.5114C227.376 46.5724 226.972 46.7123 226.696 46.9309C226.42 47.1497 226.282 47.4369 226.282 47.7929C226.282 48.149 226.418 48.4336 226.688 48.6472C226.959 48.8607 227.349 48.9675 227.859 48.9675C228.443 48.9675 228.921 48.8558 229.293 48.632C229.665 48.4084 229.938 48.1056 230.113 47.7242C230.289 47.3428 230.376 46.9285 230.376 46.4809L230.376 46.2368Z" fill="#171717"/>
<path d="M234.231 47.5487C234.295 47.8538 234.411 48.1056 234.581 48.3039C234.751 48.5022 234.972 48.6524 235.243 48.7539C235.513 48.8557 235.829 48.9065 236.19 48.9065C236.753 48.9065 237.18 48.8023 237.473 48.5937C237.765 48.3854 237.911 48.1235 237.911 47.8081C237.911 47.5437 237.823 47.3301 237.648 47.1673C237.473 47.0047 237.242 46.8699 236.955 46.7631C236.668 46.6563 236.35 46.5624 235.999 46.4808C235.723 46.4198 235.426 46.3461 235.107 46.2596C234.788 46.1733 234.486 46.0537 234.199 45.9011C233.912 45.7485 233.679 45.5502 233.498 45.3061C233.317 45.062 233.227 44.7417 233.227 44.345C233.227 43.9078 233.352 43.5238 233.602 43.1932C233.851 42.8628 234.196 42.6058 234.637 42.4228C235.078 42.2397 235.585 42.1482 236.158 42.1482C236.817 42.1482 237.403 42.2855 237.919 42.5601C238.434 42.8347 238.792 43.2619 238.994 43.8416L237.879 44.2077C237.805 43.9434 237.669 43.7401 237.473 43.5975C237.276 43.4551 237.059 43.3586 236.82 43.3077C236.581 43.2569 236.344 43.2314 236.111 43.2314C235.633 43.2314 235.248 43.3205 234.956 43.4983C234.664 43.6764 234.518 43.9434 234.518 44.2992C234.518 44.4926 234.565 44.6528 234.661 44.7798C234.757 44.9071 234.889 45.0112 235.059 45.0925C235.229 45.1741 235.431 45.2428 235.665 45.2985C235.898 45.3546 236.153 45.4182 236.429 45.4892C236.737 45.5605 237.051 45.6494 237.369 45.7562C237.688 45.863 237.985 46.0003 238.261 46.1681C238.537 46.3359 238.763 46.5495 238.938 46.8088C239.114 47.0682 239.201 47.3912 239.201 47.7776C239.201 48.2253 239.074 48.6143 238.819 48.9446C238.564 49.2753 238.211 49.532 237.76 49.7151C237.308 49.8982 236.785 49.9897 236.19 49.9897C235.373 49.9897 234.695 49.8142 234.159 49.4634C233.623 49.1125 233.264 48.5964 233.084 47.9149L234.231 47.5487Z" fill="#171717"/>
<path d="M241.306 42.2545V40.1187H242.501V42.2545H244.62V43.3224H242.501V47.4262C242.501 47.8941 242.604 48.2348 242.811 48.4484C243.019 48.6619 243.284 48.7892 243.608 48.8297C243.932 48.8705 244.269 48.8705 244.62 48.8297V49.8214C244.205 49.9129 243.799 49.9382 243.401 49.8977C243.003 49.8571 242.647 49.7427 242.334 49.5544C242.02 49.3663 241.771 49.0993 241.585 48.7534C241.399 48.4078 241.306 47.9654 241.306 47.4262V43.3223H240.111V42.2545L241.306 42.2545Z" fill="#171717"/>
<path d="M249.137 49.9897C248.394 49.9897 247.732 49.8169 247.154 49.471C246.575 49.1254 246.121 48.6524 245.792 48.0522C245.462 47.4522 245.298 46.7657 245.298 45.9926C245.298 45.2504 245.462 44.5891 245.792 44.0094C246.121 43.4297 246.572 42.9746 247.146 42.644C247.719 42.3136 248.372 42.1482 249.105 42.1482C249.827 42.1482 250.473 42.3007 251.041 42.6058C251.609 42.911 252.052 43.3331 252.371 43.8721C252.69 44.4113 252.838 45.0265 252.817 45.718C252.817 45.8301 252.811 45.9469 252.801 46.0689C252.79 46.191 252.78 46.3233 252.769 46.4656H246.604C246.625 46.9438 246.748 47.3657 246.971 47.7318C247.194 48.0979 247.488 48.3855 247.855 48.5938C248.221 48.8023 248.638 48.9065 249.105 48.9065C249.721 48.9065 250.244 48.7947 250.674 48.5709C251.104 48.3473 251.415 48.0269 251.606 47.6098L252.642 48.0064C252.323 48.6472 251.861 49.138 251.256 49.4786C250.65 49.8195 249.944 49.9897 249.137 49.9897ZM251.511 45.474C251.521 45.0368 251.423 44.6502 251.216 44.3145C251.009 43.9789 250.719 43.7145 250.348 43.5212C249.976 43.3281 249.546 43.2314 249.057 43.2314C248.632 43.2314 248.245 43.3281 247.894 43.5212C247.544 43.7145 247.255 43.9815 247.026 44.3221C246.798 44.663 246.662 45.0468 246.62 45.474H251.511Z" fill="#171717"/>
<path d="M254.428 42.2546H255.527L255.591 43.3683C255.803 43.0937 256.061 42.8598 256.363 42.6665C256.666 42.4735 257 42.3385 257.367 42.2622C257.733 42.1859 258.124 42.1836 258.538 42.2546V43.3988C258.092 43.3175 257.691 43.3175 257.335 43.3988C256.979 43.4803 256.674 43.6328 256.419 43.8564C256.164 44.0803 255.968 44.3625 255.83 44.7032C255.692 45.044 255.623 45.4381 255.623 45.8855V49.8825H254.428L254.428 42.2546Z" fill="#171717"/>
</g>
<defs>
<clipPath id="clip0_498_877">
<rect width="263" height="50" fill="white"/>
</clipPath>
</defs>
</svg>
