<svg width="428" height="480" xmlns="http://www.w3.org/2000/svg" xmlns:undefined="http://sodipodi.sourceforge.net/DTD/sodipodi-0.dtd" xml:space="preserve" version="1.1">
 <metadata id="metadata8">image/svg+xml</metadata>

 <g>
  <title>Layer 1</title>
  <path fill="#3aae9b" fill-rule="nonzero" id="path14" d="m106.81666,177.14135c5.56507,-4.204 12.40987,-6.74933 19.888,-6.79467c0.13173,-0.00133 0.26307,-0.00133 0.39427,-0.00133l0,4.78533c0,11.696 11.6864,21.17733 26.10373,21.17733c26.98267,0 54.36,-1.74 81.28533,0.70667c12.816,1.16533 25.75467,3.84133 38.04133,8.152l148.37733,-85.66666l-206.98132,-119.49999l-206.94928,119.48266l99.84062,57.65866"/>
  <path fill="#3dba6a" fill-rule="nonzero" id="path16" d="m192.02266,257.33201c-6.99333,0.18533 -13.98667,0.33867 -20.98,0.36267c-15.27333,0.05467 -43.94373,-1.692 -43.94373,21.16267c0,0.004 0,4.78267 0,4.78267l-0.39427,-0.00133c-18.764,-0.07333 -33.93587,-15.30667 -33.93587,-34.07067l0,-36.29867c0,0 0.1416,-13.056 0.96293,-15.98533c0.78707,-3.37067 2.07813,-6.55333 3.75,-9.48933l-97.48173,-56.29733l0,239.03332l188.52399,108.84381l3.49867,-222.04247"/>
  <path fill="#41b93c" fill-rule="nonzero" id="path18" d="m288.51332,211.97735c3.25333,1.65733 6.45333,3.404 9.52133,5.352c12.06933,7.66267 22.57867,17.62 30.40933,30.196c10.484,16.836 15.948,36.332 18.43067,55.88133c1.024,8.06533 -7.47867,12.668 -11.888,6.45867c-9.37733,-13.20267 -20.58267,-25.29733 -33.76133,-34.77733c-7.61333,-5.476 -15.89467,-10.05067 -24.704,-13.292c-9.95333,-3.664 -19.32533,-4.69067 -29.89867,-5.05067c-3.96667,-0.136 -7.93067,-0.19067 -11.89733,-0.21467l3.52133,223.46932l189.60532,-109.46933l0,-238.99999l-139.33866,80.44666"/>
 </g>
</svg>