<svg width="80" height="80" xmlns="http://www.w3.org/2000/svg" version="1.1" xml:space="preserve">
 <metadata id="metadata8">image/svg+xml</metadata>

 <g>
  <title>Layer 1</title>
  <g stroke="null" id="svg_1">
   <path stroke="null" d="m26.10919,31.9879c0.77849,-0.56929 1.73601,-0.91397 2.78212,-0.92011c0.01843,-0.00018 0.0368,-0.00018 0.05515,-0.00018l0,0.64801c0,1.58383 1.6348,2.86776 3.65164,2.86776c3.77459,0 7.60439,-0.23562 11.37096,0.09569c1.79282,0.15781 3.60281,0.52018 5.32158,1.10392l20.75643,-11.60069l-28.95451,-16.18228l-28.95003,16.17994l13.96665,7.80794" id="path14" fill-rule="nonzero" fill="#3aae9b"/>
   <path stroke="null" d="m38.02861,42.84705c-0.97829,0.0251 -1.95659,0.04586 -2.93488,0.04911c-2.13658,0.0074 -6.14727,-0.22912 -6.14727,2.86578c0,0.00054 0,0.64765 0,0.64765l-0.05515,-0.00018c-2.62489,-0.00993 -4.74727,-2.07278 -4.74727,-4.61373l0,-4.91544c0,0 0.01981,-1.768 0.1347,-2.16468c0.1101,-0.45644 0.29071,-0.88743 0.52459,-1.28501l-13.63667,-7.62359l0,32.36908l26.37252,14.73926l0.48943,-30.06824" id="path16" fill-rule="nonzero" fill="#3dba6a"/>
   <path stroke="null" d="m51.52664,36.70528c0.45511,0.22443 0.90275,0.46096 1.33193,0.72475c1.68837,1.03765 3.15852,2.38604 4.25395,4.08904c1.4666,2.27987 2.23096,4.91996 2.57826,7.56726c0.14325,1.09218 -1.04619,1.71546 -1.66301,0.87461c-1.31179,-1.78786 -2.8793,-3.42568 -4.72285,-4.70943c-1.06502,-0.74154 -2.2235,-1.36103 -3.45583,-1.79996c-1.39237,-0.49617 -2.70341,-0.63519 -4.18251,-0.68394c-0.5549,-0.01842 -1.10942,-0.02582 -1.66431,-0.02907l0.4926,30.26146l26.52379,-14.82397l0,-32.36457l-19.49201,10.89381" id="path18" fill-rule="nonzero" fill="#41b93c"/>
  </g>
 </g>
</svg>