<svg width="50" height="50" xmlns="http://www.w3.org/2000/svg" version="1.1" xml:space="preserve">
 <metadata id="metadata8">image/svg+xml</metadata>

 <g>
  <title>Layer 1</title>
  <g stroke="null" id="svg_1">
   <path stroke="null" d="m14.74111,19.02768c0.51619,-0.38829 1.15108,-0.62338 1.84471,-0.62756c0.01222,-0.00012 0.0244,-0.00012 0.03657,-0.00012l0,0.44198c0,1.08026 1.08397,1.95596 2.42125,1.95596c2.50277,0 5.04216,-0.16071 7.53961,0.06527c1.18875,0.10763 2.38887,0.35479 3.52852,0.75293l13.76272,-7.91227l-19.19853,-11.03716l-19.19556,11.03555l9.26071,5.32542" id="path14" fill-rule="nonzero" fill="#3aae9b"/>
   <path stroke="null" d="m22.64439,26.43418c-0.64867,0.01712 -1.29733,0.03128 -1.946,0.0335c-1.41668,0.00505 -4.076,-0.15628 -4.076,1.95461c0,0.00037 0,0.44173 0,0.44173l-0.03657,-0.00012c-1.74045,-0.00677 -3.14772,-1.41374 -3.14772,-3.14681l0,-3.35259c0,0 0.01313,-1.20587 0.08932,-1.47642c0.073,-0.31132 0.19276,-0.60527 0.34783,-0.87645l-9.04191,-5.19969l0,22.07739l17.48652,10.05294l0.32452,-20.5081" id="path16" fill-rule="nonzero" fill="#3dba6a"/>
   <path stroke="null" d="m31.59437,22.24517c0.30176,0.15307 0.59858,0.3144 0.88315,0.49432c1.11949,0.70773 2.09428,1.6274 2.82061,2.78894c0.97244,1.55499 1.47926,3.35566 1.70953,5.16126c0.09498,0.74492 -0.69368,1.17003 -1.10267,0.59653c-0.86979,-1.21941 -1.90914,-2.33649 -3.13153,-3.21207c-0.70617,-0.50577 -1.47431,-0.92829 -2.29142,-1.22766c-0.92322,-0.33841 -1.79252,-0.43324 -2.77325,-0.46649c-0.36793,-0.01256 -0.73561,-0.01761 -1.10354,-0.01983l0.32662,20.63988l17.58682,-10.11071l0,-22.07431l-12.92434,7.43015" id="path18" fill-rule="nonzero" fill="#41b93c"/>
  </g>
 </g>
</svg>